{"title":"Mechanic: Resurrection (2016) 720p HC HDRip MKVTV","uid":15900844,"size":787793768,"categoryP":"video","categoryS":"movies","magnet":"?xt=urn:btih:628ec12face5f2392d4fb8511b5ae068fb40e9a0&amp;dn=Mechanic%3A+Resurrection+%282016%29+720p+HC+HDRip+MKVTV&amp;tr=udp%3A%2F%2Ftracker.leechers-paradise.org%3A6969&amp;tr=udp%3A%2F%2Fzer0day.ch%3A1337&amp;tr=udp%3A%2F%2Fopen.demonii.com%3A1337&amp;tr=udp%3A%2F%2Ftracker.coppersurfer.tk%3A6969&amp;tr=udp%3A%2F%2Fexodus.desync.com%3A6969","seeders":1,"leechers":0,"uploader":"Qattousa","files":2,"time":1475008652,"description":"General\r\nUnique ID                      : 220390804797558801393768674011963345884 (0xA5CDB99C665B7095A056951AB84A4BDC)\r\nComplete name                  : C:UsersSaebDesktopMechanic.Resurrection.2016.720p.HC HDRip.750MB.MKVTVMechanic.Resurrection.2016.720p.HC HDRip.750MB.MKVTV.mkv\r\nFormat                         : Matroska\r\nFormat version                 : Version 4 / Version 2\r\nFile size                      : 751 MiB\r\nDuration                       : 1h 37mn\r\nOverall bit rate               : 1 074 Kbps\r\nMovie name                     : Mechanic.Resurrection.2016.720p.HC \r\n\r\nVideo\r\nID                             : 2\r\nFormat                         : AVC\r\nFormat/Info                    : Advanced Video Codec\r\nFormat profile                 :   \r\nFormat settings, CABAC         : Yes\r\nFormat settings, ReFrames      : 5 frames\r\nCodec ID                       : V_MPEG4/ISO/AVC\r\nDuration                       : 1h 37mn\r\nBit rate                       : 1 009 Kbps\r\nWidth                          : 1 280 pixels\r\nHeight                         : 538 pixels\r\nDisplay aspect ratio           : 2.40:1\r\nFrame rate mode                : Constant\r\nFrame rate                     : 24.000 fps\r\nColor space                    : YUV\r\nChroma subsampling             : 4:2:0\r\nBit depth                      : 8 bits\r\nScan type                      : Progressive\r\nBits/(Pixel*Frame)             : 0.061\r\nStream size                    : 705 MiB (94%)\r\n\r\n\r\nAudio\r\nID                             : 1\r\nFormat                         : AAC\r\nFormat/Info                    : Advanced Audio Codec\r\nFormat profile                 : HE-AAC / LC\r\nCodec ID                       : A_AAC\r\nDuration                       : 1h 37mn\r\nBit rate                       : 63.9 Kbps\r\nChannel(s)                     : 2 channels\r\nChannel positions              : Front: L R\r\nSampling rate                  : 48.0 KHz / 24.0 KHz\r\nFrame rate                     : 23.438 fps (1024 spf)\r\nCompression mode               : Lossy\r\nDelay relative to video        : 31ms\r\nStream size                    : 44.7 MiB (6%)\r\nDefault                        : Yes\r\nForced                         : No","torrent":{"xt":"urn:btih:628ec12face5f2392d4fb8511b5ae068fb40e9a0","amp;dn":"Mechanic%3A+Resurrection+%282016%29+720p+HC+HDRip+MKVTV","amp;tr":["udp%3A%2F%2Ftracker.leechers-paradise.org%3A6969","udp%3A%2F%2Fzer0day.ch%3A1337","udp%3A%2F%2Fopen.demonii.com%3A1337","udp%3A%2F%2Ftracker.coppersurfer.tk%3A6969","udp%3A%2F%2Fexodus.desync.com%3A6969"],"infoHash":"628ec12face5f2392d4fb8511b5ae068fb40e9a0","infoHashBuffer":{"type":"Buffer","data":[98,142,193,47,172,229,242,57,45,79,184,81,27,90,224,104,251,64,233,160]},"announce":[],"urlList":[]}}